<svg width="369" height="41" viewBox="0 0 369 41" fill="none" xmlns="http://www.w3.org/2000/svg">
<g clip-path="url(#clip0_832_1623)">
<path d="M3.50811 14.9L1.6375 16.7707C1.11974 17.268 0.707821 17.8649 0.426432 18.5254C0.145042 19.1859 0 19.8965 0 20.6144C0 21.3324 0.145042 22.0429 0.426432 22.7034C0.707821 23.3639 1.11974 23.9608 1.6375 24.4582L16.7075 39.6769C17.0647 40.0423 17.4804 40.3454 17.9375 40.5738V22.1263L3.50811 14.9Z" fill="white"/>
<path d="M37.4919 14.9L39.3625 16.7707C39.8803 17.268 40.2922 17.8649 40.5736 18.5254C40.855 19.1859 41 19.8965 41 20.6144C41 21.3324 40.855 22.0429 40.5736 22.7034C40.2922 23.3639 39.8803 23.9608 39.3625 24.4582L24.2925 39.6769C23.9353 40.0423 23.5196 40.3454 23.0625 40.5738V22.1263L37.4919 14.9Z" fill="white"/>
<path d="M33.8736 11.0819L24.4437 1.62625C23.9444 1.11172 23.347 0.702631 22.6867 0.423284C22.0265 0.143937 21.3168 0 20.5999 0C19.883 0 19.1733 0.143937 18.5131 0.423284C17.8528 0.702631 17.2554 1.11172 16.7562 1.62625L7.30054 11.0819L20.5487 17.6931L33.8736 11.0819Z" fill="white"/>
<path fill-rule="evenodd" clip-rule="evenodd" d="M239.03 6.62677C238.989 5.93531 239.156 5.24746 239.511 4.65226C239.865 4.05706 240.39 3.58193 241.017 3.28839C241.645 2.99485 242.346 2.89642 243.03 3.00584C243.714 3.11526 244.349 3.42749 244.854 3.90211C245.358 4.37673 245.708 4.99188 245.859 5.66791C246.01 6.34394 245.955 7.04972 245.7 7.69387C245.446 8.33802 245.003 8.89086 244.431 9.28083C243.858 9.6708 243.182 9.87993 242.489 9.88115C242.048 9.89482 241.609 9.82146 241.197 9.66528C240.784 9.50909 240.406 9.27313 240.085 8.9709C239.764 8.66866 239.505 8.30607 239.324 7.90385C239.143 7.50163 239.043 7.06767 239.03 6.62677ZM239.286 12.8536H245.667V35.9161H239.286V12.8536ZM68.675 5.16615H56.375V35.9162H69.5462C76.4394 35.9162 80.1294 32.303 80.1294 27.4087C80.22 25.523 79.5583 23.6785 78.2899 22.2804C77.0215 20.8822 75.2499 20.0447 73.3644 19.9518V19.6443C74.9347 19.4025 76.3639 18.5991 77.3866 17.3832C78.4093 16.1673 78.9559 14.6215 78.925 13.033C78.925 8.44615 75.4656 5.16615 68.675 5.16615ZM72.3394 14.0837C72.3394 16.518 70.2637 17.9787 67.7012 17.9787L62.7812 18.0555V10.368H67.8038C70.6994 10.368 72.3394 11.6493 72.3394 14.0837ZM73.2875 26.7168C73.2875 29.023 71.8013 30.5349 68.1625 30.5349H62.7812V22.3862H68.1625C68.7901 22.2954 69.4297 22.3387 70.0393 22.5133C70.6488 22.688 71.2145 22.9898 71.6988 23.3991C72.1831 23.8083 72.5751 24.3157 72.849 24.8875C73.1228 25.4594 73.2723 26.0829 73.2875 26.7168ZM83.2812 35.9162H89.7644L89.6619 5.16615H83.2812V35.9162ZM93.1212 24.4618C93.1212 17.3124 97.4775 12.5462 104.473 12.5462C111.469 12.5462 115.825 17.3124 115.825 24.4618C115.825 31.6112 111.469 36.3518 104.473 36.3518C97.4775 36.3518 93.1212 31.5855 93.1212 24.4618ZM109.316 24.4491C109.313 20.4324 107.647 17.4662 104.499 17.4662C101.347 17.4662 99.6043 20.4387 99.6043 24.4618C99.6043 28.4849 101.27 31.4318 104.499 31.4318C107.724 31.4318 109.313 28.4657 109.316 24.4491ZM129.56 12.5462C122.564 12.5462 118.234 17.3893 118.234 24.4618C118.234 31.483 122.488 36.3518 129.56 36.3518C135.633 36.3518 139.503 32.7643 139.81 27.4599H133.763C133.697 28.5157 133.225 29.5052 132.447 30.2215C131.668 30.9378 130.643 31.3256 129.586 31.3037C126.588 31.3037 124.666 28.6643 124.666 24.3849C124.666 20.1055 126.613 17.543 129.586 17.543C130.643 17.5211 131.668 17.9089 132.447 18.6252C133.225 19.3415 133.697 20.331 133.763 21.3868H139.81C139.605 16.0568 135.582 12.5462 129.56 12.5462ZM143.167 5.16615H149.573V21.5918H149.906L157.312 12.8537H164.641L156.082 22.8474L165.076 35.9162H157.594L151.29 26.6143L149.573 28.5874V35.9162H143.167V5.16615ZM176.377 12.5462C169.381 12.5462 165.051 17.3893 165.051 24.4618C165.051 31.483 169.304 36.3518 176.428 36.3518C182.527 36.3518 186.371 32.7643 186.678 27.4599H180.656C180.584 28.5179 180.107 29.5075 179.325 30.2232C178.542 30.939 177.514 31.3259 176.454 31.3037C173.456 31.3037 171.534 28.6643 171.534 24.3849C171.534 20.1055 173.481 17.543 176.454 17.543C177.514 17.5208 178.542 17.9077 179.325 18.6235C180.107 19.3392 180.584 20.3288 180.656 21.3868H186.627C186.448 16.0568 182.399 12.5462 176.377 12.5462ZM196.39 35.9162H190.009V5.16615H196.211V16.928H196.493C197.014 15.5511 197.968 14.3801 199.21 13.5903C200.453 12.8004 201.918 12.4341 203.386 12.5462C208.178 12.5462 211.355 15.8262 211.355 21.233V35.9162H204.949V22.3605C205.033 21.785 204.989 21.1979 204.818 20.6418C204.648 20.0856 204.356 19.5743 203.963 19.145C203.571 18.7157 203.088 18.3791 202.549 18.1597C202.01 17.9402 201.43 17.8434 200.849 17.8762C200.234 17.8513 199.622 17.9584 199.052 18.1902C198.483 18.422 197.97 18.773 197.547 19.2197C197.125 19.6665 196.803 20.1985 196.603 20.7801C196.404 21.3616 196.331 21.9792 196.39 22.5912V35.9162ZM223.143 22.3605C218.581 22.7961 214.481 24.3593 214.481 29.4843C214.481 34.0455 217.736 36.3518 222.143 36.3518C223.497 36.4564 224.853 36.1689 226.048 35.5236C227.243 34.8783 228.227 33.9026 228.883 32.713H229.062V35.9161H235.135V20.3361C235.135 14.8268 230.471 12.5205 225.346 12.5205C219.811 12.5205 216.198 15.1599 215.301 19.3624L221.221 19.8493C221.507 19.0174 222.071 18.309 222.817 17.8427C223.564 17.3763 224.447 17.18 225.321 17.2868C227.499 17.2868 228.729 18.3886 228.729 20.2849C228.729 21.7968 227.166 21.9761 223.143 22.3605ZM228.78 25.1024V27.6649C228.744 28.2544 228.592 28.8309 228.33 29.3605C228.069 29.8901 227.704 30.3622 227.258 30.7489C226.811 31.1356 226.292 31.4292 225.731 31.6125C225.169 31.7958 224.577 31.865 223.988 31.8161C222.015 31.8161 220.606 30.9193 220.606 29.1255C220.606 27.3318 222.092 26.4349 224.347 26.1274C225.867 26.0027 227.36 25.6574 228.78 25.1024ZM249.844 35.9161H256.352L256.25 22.5911C256.179 21.9855 256.241 21.3717 256.429 20.7919C256.618 20.2121 256.93 19.68 257.344 19.2321C257.758 18.7842 258.264 18.4312 258.827 18.1971C259.39 17.9631 259.997 17.8536 260.606 17.8761C261.186 17.848 261.764 17.948 262.301 18.1691C262.837 18.3901 263.318 18.7267 263.71 19.1549C264.101 19.5832 264.394 20.0924 264.566 20.6465C264.738 21.2006 264.786 21.7858 264.706 22.3605V35.9161H271.112V21.233C271.112 15.8518 267.961 12.5461 263.143 12.5461C261.672 12.4553 260.21 12.8297 258.964 13.6161C257.717 14.4025 256.75 15.5612 256.199 16.928H255.943V12.8536H249.844V35.9161Z" fill="white"/>
<path fill-rule="evenodd" clip-rule="evenodd" d="M341.581 12.8537H335.483L335.457 35.9162H341.863V22.0787C341.81 21.5498 341.867 21.0157 342.029 20.5096C342.192 20.0036 342.457 19.5364 342.808 19.1373C343.159 18.7382 343.588 18.4157 344.069 18.1899C344.551 17.9641 345.073 17.8399 345.604 17.8249C346.089 17.8042 346.572 17.8877 347.021 18.07C347.47 18.2523 347.875 18.5289 348.208 18.8813C348.541 19.2337 348.794 19.6535 348.951 20.1123C349.107 20.5711 349.163 21.0582 349.115 21.5405V35.9162H355.316V21.8224C355.261 21.3079 355.317 20.7875 355.48 20.2965C355.643 19.8054 355.91 19.3551 356.262 18.9761C356.615 18.5971 357.044 18.2981 357.522 18.0995C358 17.9009 358.515 17.8073 359.032 17.8249C359.53 17.8027 360.027 17.8892 360.489 18.0786C360.95 18.2679 361.365 18.5555 361.704 18.9213C362.043 19.2871 362.298 19.7224 362.452 20.1969C362.605 20.6713 362.654 21.1736 362.594 21.6687V35.9162H369V20.5412C369.05 18.8488 368.523 17.1899 367.504 15.8372C366.486 14.4844 365.038 13.5184 363.398 13.098C361.758 12.6775 360.024 12.8277 358.481 13.5238C356.937 14.2199 355.677 15.4204 354.906 16.928H354.548C354.159 15.5905 353.324 14.4264 352.182 13.6292C351.04 12.832 349.659 12.4498 348.269 12.5462C346.871 12.4835 345.49 12.8769 344.335 13.6672C343.179 14.4576 342.312 15.602 341.863 16.928H341.581V12.8537ZM296.737 12.5462C289.742 12.5462 285.437 17.3893 285.437 24.4618C285.437 31.4831 289.665 36.3518 296.866 36.3518C302.964 36.3518 306.834 32.7643 307.116 27.4599H301.094C301.022 28.518 300.545 29.5075 299.762 30.2233C298.98 30.939 297.951 31.3259 296.891 31.3037C293.919 31.3037 291.971 28.6643 291.971 24.3849C291.971 20.1056 293.919 17.5431 296.891 17.5431C297.951 17.5208 298.98 17.9077 299.762 18.6235C300.545 19.3392 301.022 20.3288 301.094 21.3868H306.987C306.808 16.0568 302.759 12.5462 296.737 12.5462ZM276.529 30.1672C275.857 30.8345 275.476 31.7404 275.469 32.6874C275.465 33.1607 275.556 33.63 275.735 34.0682C275.913 34.5064 276.177 34.9049 276.51 35.2408C276.844 35.5766 277.241 35.8432 277.678 36.025C278.114 36.2069 278.583 36.3006 279.056 36.3006C280.008 36.3006 280.92 35.9226 281.593 35.2498C282.266 34.577 282.644 33.6645 282.644 32.7131C282.644 31.7616 282.266 30.8491 281.593 30.1763C280.92 29.5035 280.008 29.1256 279.056 29.1256C278.109 29.1255 277.201 29.5 276.529 30.1672ZM309.448 24.4618C309.448 17.3124 313.804 12.5462 320.799 12.5462C327.795 12.5462 332.126 17.3124 332.126 24.4618C332.126 31.6112 327.795 36.3518 320.799 36.3518C313.804 36.3518 309.448 31.5856 309.448 24.4618ZM325.642 24.4491C325.639 20.4324 323.974 17.4662 320.825 17.4662C317.673 17.4662 315.931 20.4387 315.931 24.4618C315.931 28.4849 317.596 31.4318 320.825 31.4318C324.05 31.4318 325.639 28.4657 325.642 24.4491Z" fill="white"/>
</g>
<defs>
<clipPath id="clip0_832_1623">
<rect width="369" height="41" fill="white"/>
</clipPath>
</defs>
</svg>
