<svg version="1.1" id="Layer_1" xmlns="http://www.w3.org/2000/svg" xmlns:xlink="http://www.w3.org/1999/xlink" x="0" y="0" viewBox="0 0 905.29 98.92" xml:space="preserve" enable-background="new 0 0 905.29 98.92"><style type="text/css">.st0{fill:#3d89f5}.st1{fill:#85b5f8}.st2{fill:#1656b9}.st3{fill:#b1b8c7}</style><g><path class="st0" d="M8.45,36.4L3.85,41c-5.13,5.13-5.13,13.45,0,18.58L41,96.74c0.91,0.91,1.93,1.59,3,2.18V54.18L8.45,36.4z"/><path class="st1" d="M82.76,27.03L59.58,3.85c-5.13-5.13-13.45-5.13-18.58,0L17.82,27.03l32.47,16.24L82.76,27.03z"/><path class="st2" d="M92.14,36.4L56.58,54.18v44.74c1.07-0.59,2.1-1.27,3-2.18l37.16-37.16c5.13-5.13,5.13-13.45,0-18.58 L92.14,36.4z"/></g><path d="M138.31,12.57l30.21-0.01c16.65,0,25.04,8.03,25.04,19.34c0,8.88-5.78,14.44-13.63,16.21v0.74	c8.58,0.41,16.58,7.14,16.58,18.31c0,12.01-9.02,20.85-25.97,20.85l-32.23,0.01V12.57z M166.08,44.14c6.52,0,11.38-3.61,11.38-9.58	c0-5.45-4.01-9.1-11.09-9.1h-12.12v18.67H166.08z M167.26,74.97c8.91,0,12.78-3.73,12.78-9.4c0-6.22-4.75-10.64-12.41-10.64h-13.37	v20.04H167.26z"/><path d="M220.24,88.01h-15.69V12.57h15.69V88.01z"/><path d="M228.44,59.94c0-17.53,10.68-29.24,27.84-29.24c17.17,0,27.85,11.71,27.85,29.24c0,17.42-10.68,29.18-27.85,29.18	C239.12,89.11,228.44,77.36,228.44,59.94z M268.19,59.83c0-9.87-4.06-17.17-11.83-17.17c-7.92,0-11.97,7.3-11.97,17.17	c0,9.88,4.06,17.13,11.97,17.13C264.13,76.95,268.19,69.7,268.19,59.83z"/><path d="M290.07,59.94c0-17.35,10.6-29.24,27.77-29.24c14.77,0,24.68,8.58,25.34,21.66l-14.8,0c-0.85-5.64-4.54-9.43-10.28-9.43	c-7.29,0-12.08,6.12-12.08,16.8c0,10.83,4.76,16.98,12.08,16.98c5.38,0,9.36-3.4,10.28-9.43h14.8c-0.74,13-10.21,21.85-25.27,21.85	C300.5,89.11,290.07,77.14,290.07,59.94z"/><path d="M351.26,12.57h15.69V52.9h0.84l18.12-21.47h18.01l-21,24.49L405,88.01h-18.38L371.19,65.2l-4.24,4.82v17.99h-15.69V12.57z"/><path d="M404.94,59.94c0-17.35,10.6-29.24,27.77-29.24c14.77,0,24.68,8.58,25.34,21.66h-14.8c-0.85-5.64-4.54-9.43-10.28-9.43	c-7.29,0-12.08,6.12-12.08,16.8c0,10.83,4.76,16.98,12.08,16.98c5.38,0,9.36-3.4,10.28-9.43h14.8c-0.74,13-10.21,21.85-25.26,21.85	C415.37,89.11,404.94,77.14,404.94,59.94z"/><path d="M481.82,88.01h-15.69V12.57h15.25v28.84h0.66c2.58-6.67,8.33-10.72,16.91-10.72c11.79,0,19.59,8.03,19.56,21.29v36.03	h-15.69V54.78c0.03-6.96-3.72-11.05-10.09-11.05c-6.41,0-10.87,4.27-10.91,11.57V88.01z"/><path d="M526.22,72.2c0-12.64,10.05-16.39,21.26-17.42c9.84-0.96,13.7-1.44,13.7-5.09v-0.22c0-4.64-3.06-7.33-8.4-7.33	c-5.64,0-8.98,2.76-10.05,6.52l-14.51-1.18c2.17-10.31,11.09-16.79,24.64-16.79c12.6,0,24.01,5.67,24.01,19.15v38.16h-14.88v-7.84	h-0.44c-2.76,5.26-8.18,8.91-16.54,8.91C534.21,89.07,526.22,83.4,526.22,72.2z M561.28,67.78v-6c-1.88,1.25-7.48,2.06-10.9,2.54	c-5.53,0.77-9.18,2.94-9.18,7.37c0,4.31,3.46,6.56,8.29,6.56C556.39,78.25,561.28,73.71,561.28,67.78z"/><path d="M586.44,16.18c0-4.34,3.84-7.92,8.47-7.92c4.68,0,8.51,3.57,8.51,7.92c0,4.39-3.83,7.96-8.51,7.96	C590.28,24.14,586.44,20.56,586.44,16.18z M587.04,31.43h15.69v56.58h-15.69V31.43z"/><path d="M628.89,88.01H613.2V31.43h14.96v9.98h0.66c2.54-6.59,8.63-10.72,17.02-10.72c11.8,0,19.53,8.1,19.53,21.29v36.03h-15.69	V54.78c0.03-6.92-3.76-11.05-10.05-11.05c-6.34,0-10.68,4.27-10.72,11.57V88.01z"/><path class="st3" d="M676,80.12c-0.03-4.82,3.98-8.76,8.85-8.76c4.71,0,8.8,3.94,8.84,8.76c-0.04,4.9-4.12,8.85-8.84,8.85	C679.98,88.97,675.96,85.02,676,80.12z"/><path class="st3" d="M700.25,59.94c0-17.35,10.6-29.24,27.77-29.24c14.77,0,24.68,8.58,25.34,21.66h-14.8	c-0.85-5.64-4.54-9.43-10.28-9.43c-7.29,0-12.08,6.12-12.08,16.8c0,10.83,4.76,16.98,12.08,16.98c5.38,0,9.36-3.4,10.28-9.43h14.8	c-0.74,13-10.21,21.85-25.26,21.85C710.68,89.11,700.25,77.14,700.25,59.94z"/><path class="st3" d="M759.16,59.94c0-17.53,10.68-29.24,27.85-29.24c17.16,0,27.84,11.71,27.84,29.24	c0,17.42-10.68,29.18-27.84,29.18C769.84,89.11,759.16,77.36,759.16,59.94z M798.91,59.83c0-9.87-4.06-17.17-11.83-17.17	c-7.92,0-11.97,7.3-11.97,17.17c0,9.88,4.06,17.13,11.97,17.13C794.85,76.95,798.91,69.7,798.91,59.83z"/><path class="st3" d="M823.07,31.43h14.96v9.98h0.66c2.36-6.67,8.15-10.72,15.77-10.72c7.77,0,13.56,4.16,15.36,10.72h0.59	c2.32-6.48,8.76-10.72,17.05-10.72c10.54,0,17.83,7,17.83,19.26v38.06h-15.66V53.05c0-6.3-3.75-9.43-8.76-9.43	c-5.71,0-9.06,3.98-9.06,9.84v34.56h-15.22v-35.3c0-5.56-3.46-9.1-8.62-9.1c-5.23,0-9.21,4.16-9.21,10.42v33.97h-15.69V31.43z"/></svg>