<svg width="160" height="196" viewBox="0 0 160 196" fill="none" xmlns="http://www.w3.org/2000/svg"><g clip-path="url(#clip0)"><path fill-rule="evenodd" clip-rule="evenodd" d="M0 0H160V160H0V0ZM60.0775 142.6C62.0508 143.773 64.3175 144.36 66.8775 144.36C68.9575 144.36 70.7708 144.067 72.3175 143.48C73.8642 142.867 75.3308 142.013 76.7175 140.92C76.6641 140.653 76.5575 140.373 76.3975 140.08C76.2375 139.76 76.0508 139.52 75.8375 139.36C74.7442 140.027 73.5842 140.547 72.3575 140.92C71.1308 141.293 69.9442 141.48 68.7975 141.48C66.7442 141.48 65.0108 140.947 63.5975 139.88C62.2108 138.813 61.1441 137.347 60.3975 135.48C59.6775 133.613 59.3175 131.533 59.3175 129.24C59.3175 127.88 59.4641 126.573 59.7575 125.32C60.0775 124.067 60.5575 122.947 61.1975 121.96C61.8642 120.973 62.7175 120.187 63.7575 119.6C64.8242 119.013 66.1041 118.72 67.5975 118.72C68.6641 118.72 69.5975 118.907 70.3975 119.28C71.1975 119.653 71.8242 120.32 72.2775 121.28C72.7308 122.24 72.9841 123.587 73.0375 125.32C73.5175 125.32 73.9975 125.293 74.4775 125.24C74.9842 125.16 75.4108 125.04 75.7575 124.88C75.7575 123.787 75.7841 122.72 75.8375 121.68C75.8908 120.613 76.0108 119.613 76.1975 118.68C74.7575 117.987 73.3175 117.467 71.8775 117.12C70.4375 116.773 68.9175 116.6 67.3175 116.6C65.5842 116.6 63.9175 116.893 62.3175 117.48C60.7175 118.04 59.2775 118.893 57.9975 120.04C56.7175 121.187 55.7042 122.613 54.9575 124.32C54.2108 126.027 53.8375 128.027 53.8375 130.32C53.8375 133.067 54.3842 135.507 55.4775 137.64C56.5975 139.747 58.1308 141.4 60.0775 142.6ZM28.2237 116.92C27.4504 116.893 26.7971 116.867 26.2637 116.84C26.2637 117.187 26.2771 117.573 26.3037 118C26.3571 118.4 26.4237 118.733 26.5037 119C27.2237 119.053 27.7837 119.2 28.1837 119.44C28.5837 119.653 28.8504 120.013 28.9837 120.52C29.1437 121.027 29.2237 121.787 29.2237 122.8V137.84C29.2237 138.933 29.1437 139.773 28.9837 140.36C28.8237 140.92 28.5437 141.32 28.1437 141.56C27.7704 141.773 27.2237 141.907 26.5037 141.96C26.3971 142.227 26.3304 142.547 26.3037 142.92C26.2771 143.267 26.2637 143.667 26.2637 144.12C26.9304 144.093 27.7437 144.067 28.7037 144.04C29.6637 144.04 30.6904 144.027 31.7837 144H35.0237H37.9837C40.5171 144 42.5571 143.653 44.1037 142.96C45.6504 142.267 46.7704 141.333 47.4637 140.16C48.1837 138.96 48.5437 137.627 48.5437 136.16C48.5437 134.613 48.2104 133.347 47.5437 132.36C46.9037 131.373 45.9971 130.64 44.8237 130.16C43.6504 129.653 42.2771 129.36 40.7037 129.28C42.5971 129.013 44.0637 128.293 45.1037 127.12C46.1704 125.92 46.7037 124.493 46.7037 122.84C46.7037 121.32 46.3304 120.133 45.5837 119.28C44.8371 118.427 43.7571 117.813 42.3437 117.44C40.9571 117.067 39.2771 116.88 37.3037 116.88C36.6371 116.88 35.8904 116.893 35.0637 116.92C34.2637 116.92 33.4637 116.933 32.6637 116.96H30.5037C29.7837 116.96 29.0237 116.947 28.2237 116.92ZM34.3437 119.3V128.88H35.6637C37.1304 128.88 38.2637 128.667 39.0637 128.24C39.8904 127.813 40.4771 127.227 40.8237 126.48C41.1704 125.733 41.3437 124.907 41.3437 124C41.3437 122.773 41.0771 121.8 40.5437 121.08C40.0104 120.36 39.3437 119.853 38.5437 119.56C37.7437 119.24 36.9171 119.08 36.0637 119.08C35.6637 119.08 35.2904 119.107 34.9437 119.16C34.7646 119.19 34.5646 119.236 34.3437 119.3ZM34.3437 131V137.96C34.3437 139.08 34.4504 139.92 34.6637 140.48C34.9037 141.04 35.2771 141.413 35.7837 141.6C36.2904 141.787 36.9571 141.88 37.7837 141.88C39.4371 141.88 40.6904 141.427 41.5437 140.52C42.3971 139.587 42.8237 138.307 42.8237 136.68C42.8237 135.533 42.6104 134.587 42.1837 133.84C41.7571 133.093 41.1837 132.52 40.4637 132.12C39.7704 131.72 38.9704 131.44 38.0637 131.28C37.1837 131.093 36.2637 131 35.3037 131H34.3437ZM94.2747 116.72L103.595 137.8C104.101 138.92 104.515 139.773 104.835 140.36C105.155 140.92 105.461 141.307 105.755 141.52C106.075 141.733 106.421 141.88 106.795 141.96C106.901 142.307 106.968 142.653 106.995 143C107.048 143.32 107.075 143.693 107.075 144.12C106.728 144.093 106.221 144.067 105.555 144.04C104.915 144.04 104.261 144.027 103.595 144H101.955H100.715C100.235 144.027 99.728 144.04 99.1947 144.04C98.6613 144.067 98.168 144.08 97.7147 144.08C97.2613 144.107 96.9013 144.12 96.6347 144.12C96.6347 143.667 96.648 143.267 96.6747 142.92C96.728 142.573 96.808 142.253 96.9147 141.96C97.9547 141.8 98.568 141.533 98.7547 141.16C98.9413 140.76 98.7947 139.987 98.3147 138.84L97.0355 135.881C95.3785 135.885 93.6316 135.911 91.7947 135.96C90.0812 135.983 88.4481 136.036 86.8955 136.12L86.1547 138.04C85.7013 139.293 85.5813 140.24 85.7947 140.88C86.008 141.493 86.6213 141.853 87.6347 141.96C87.7413 142.253 87.808 142.587 87.8347 142.96C87.888 143.307 87.9147 143.693 87.9147 144.12C87.6213 144.093 87.2347 144.067 86.7547 144.04C86.3013 144.04 85.808 144.027 85.2747 144H83.8347C83.168 144 82.5147 144.013 81.8747 144.04C81.2347 144.067 80.728 144.093 80.3547 144.12C80.3547 143.747 80.368 143.387 80.3947 143.04C80.448 142.667 80.5413 142.307 80.6747 141.96C81.128 141.88 81.5147 141.707 81.8347 141.44C82.1547 141.173 82.4747 140.747 82.7947 140.16C83.1147 139.573 83.4747 138.773 83.8747 137.76L92.2347 116.92C92.5813 116.84 92.9013 116.787 93.1947 116.76C93.488 116.733 93.848 116.72 94.2747 116.72ZM93.5947 127.92L96.1535 133.84H87.7751L90.0747 127.88C90.448 126.947 90.7947 126.013 91.1147 125.08C91.3294 124.454 91.5441 123.791 91.7588 123.093C91.9708 123.764 92.1827 124.399 92.3947 125C92.7147 125.88 93.1147 126.853 93.5947 127.92ZM118.036 124.467L127.075 144.36C127.448 144.36 127.808 144.333 128.155 144.28C128.528 144.253 128.862 144.187 129.155 144.08L137.159 124.41L138.515 137.24C138.648 138.467 138.675 139.413 138.595 140.08C138.542 140.72 138.328 141.173 137.955 141.44C137.582 141.68 136.968 141.853 136.115 141.96C136.035 142.28 135.968 142.627 135.915 143C135.862 143.373 135.835 143.747 135.835 144.12C136.262 144.093 136.782 144.067 137.395 144.04C138.008 144.04 138.648 144.027 139.315 144H141.115H142.515H144.155C144.715 144.027 145.235 144.04 145.715 144.04C146.195 144.067 146.595 144.093 146.915 144.12C146.915 143.747 146.888 143.373 146.835 143C146.808 142.6 146.755 142.24 146.675 141.92C146.035 141.84 145.515 141.667 145.115 141.4C144.742 141.133 144.448 140.64 144.235 139.92C144.022 139.173 143.848 138.107 143.715 136.72L142.355 123.24C142.195 121.587 142.342 120.467 142.795 119.88C143.248 119.293 143.995 119 145.035 119C145.142 118.68 145.208 118.333 145.235 117.96C145.262 117.587 145.275 117.213 145.275 116.84C144.902 116.867 144.488 116.893 144.035 116.92C143.608 116.92 143.168 116.933 142.715 116.96H141.475H140.195C139.715 116.933 139.235 116.92 138.755 116.92C138.302 116.893 137.888 116.867 137.515 116.84L129.578 137.416L120.475 116.84C120.155 116.867 119.768 116.893 119.315 116.92C118.862 116.92 118.395 116.933 117.915 116.96H116.675H115.395C114.915 116.933 114.435 116.92 113.955 116.92C113.502 116.893 113.115 116.867 112.795 116.84C112.795 117.213 112.808 117.587 112.835 117.96C112.862 118.333 112.928 118.68 113.035 119C113.782 119 114.355 119.12 114.755 119.36C115.182 119.6 115.462 120.013 115.595 120.6C115.728 121.187 115.742 122.013 115.635 123.08L114.515 135.88C114.355 137.533 114.142 138.787 113.875 139.64C113.635 140.467 113.302 141.04 112.875 141.36C112.475 141.68 111.915 141.88 111.195 141.96C111.115 142.28 111.048 142.64 110.995 143.04C110.968 143.44 110.955 143.8 110.955 144.12C111.302 144.093 111.728 144.067 112.235 144.04C112.742 144.04 113.262 144.027 113.795 144H115.275H117.515C118.342 144.027 119.035 144.067 119.595 144.12C119.595 143.8 119.582 143.44 119.555 143.04C119.528 142.64 119.462 142.28 119.355 141.96C118.608 141.88 118.022 141.68 117.595 141.36C117.168 141.04 116.902 140.467 116.795 139.64C116.688 138.813 116.702 137.613 116.835 136.04L118.036 124.467Z" fill="#fff"/><path d="M24.89 187.04L24.26 187.66C24.0862 187.824 23.9468 188.021 23.85 188.24C23.7579 188.46 23.7104 188.696 23.7104 188.935C23.7104 189.174 23.7579 189.41 23.85 189.63C23.9443 189.85 24.0841 190.048 24.26 190.21L29.34 195.26C29.4576 195.388 29.6007 195.49 29.76 195.56V189.44L24.89 187.04Z" fill="#fff"/><path d="M36.35 187.04L36.98 187.66C37.1538 187.824 37.2932 188.021 37.39 188.24C37.4821 188.46 37.5296 188.696 37.5296 188.935C37.5296 189.174 37.4821 189.41 37.39 189.63C37.2957 189.85 37.156 190.048 36.98 190.21L31.9 195.24C31.7824 195.368 31.6393 195.47 31.48 195.54V189.44L36.35 187.04Z" fill="#fff"/><path d="M35.13 185.77L31.95 182.63C31.7789 182.462 31.5791 182.327 31.36 182.23C31.1339 182.141 30.8932 182.093 30.65 182.09C30.4098 182.091 30.1721 182.139 29.95 182.23C29.731 182.327 29.5312 182.462 29.36 182.63L26.17 185.77L30.64 187.97L35.13 185.77Z" fill="#fff"/><path fill-rule="evenodd" clip-rule="evenodd" d="M104.32 184.29C104.302 184.062 104.359 183.834 104.48 183.64C104.599 183.438 104.777 183.277 104.99 183.18C105.2 183.085 105.433 183.054 105.66 183.09C105.892 183.125 106.108 183.23 106.28 183.39C106.449 183.545 106.567 183.747 106.62 183.97C106.685 184.192 106.685 184.428 106.62 184.65C106.532 184.862 106.382 185.044 106.19 185.17C105.995 185.3 105.765 185.37 105.53 185.37C105.383 185.379 105.236 185.355 105.1 185.3C104.959 185.249 104.83 185.171 104.72 185.07C104.614 184.969 104.526 184.851 104.46 184.72C104.383 184.588 104.335 184.442 104.32 184.29ZM104.4 186.36H106.55V194.02H104.4V186.36ZM46.87 183.81H42.72V194.02H47.16C49.48 194.02 50.73 192.82 50.73 191.19C50.7452 190.88 50.6982 190.569 50.5917 190.277C50.4853 189.985 50.3215 189.718 50.11 189.49C49.6775 189.028 49.0823 188.752 48.45 188.72V188.61C48.977 188.535 49.4578 188.268 49.8 187.86C50.1475 187.462 50.333 186.948 50.32 186.42C50.32 184.9 49.16 183.81 46.87 183.81ZM48.1 186.81C48.1 187.62 47.4 188.1 46.54 188.1H44.88V185.54H46.57C47.55 185.54 48.1 185.96 48.1 186.77V186.81ZM48.42 191C48.42 191.77 47.92 192.27 46.69 192.27H44.88V189.56H46.66C46.8745 189.532 47.0925 189.549 47.3 189.61C47.5042 189.668 47.6947 189.767 47.86 189.9C48.017 190.037 48.146 190.204 48.24 190.39C48.3421 190.564 48.4037 190.759 48.42 190.96V191ZM51.79 194.06H53.98V183.85H51.83L51.79 194.06ZM55.11 190.25C55.1336 189.498 55.378 188.77 55.813 188.156C56.2479 187.542 56.854 187.07 57.5555 186.798C58.2571 186.527 59.0232 186.468 59.758 186.629C60.4929 186.79 61.164 187.164 61.6877 187.704C62.2114 188.244 62.5645 188.926 62.7028 189.666C62.8411 190.405 62.7586 191.169 62.4655 191.862C62.1724 192.555 61.6818 193.146 61.0548 193.562C60.4278 193.978 59.6923 194.2 58.94 194.2C58.4181 194.229 57.896 194.146 57.4092 193.956C56.9224 193.765 56.4823 193.472 56.1189 193.096C55.7555 192.721 55.4773 192.271 55.3032 191.778C55.1291 191.285 55.0632 190.761 55.11 190.24V190.25ZM60.57 190.25C60.57 188.92 60.01 187.93 58.95 187.93C57.89 187.93 57.3 188.93 57.3 190.25C57.3 191.57 57.86 192.57 58.95 192.57C60.04 192.57 60.57 191.54 60.57 190.24V190.25ZM67.4 186.3C66.4603 186.45 65.6048 186.93 64.9873 187.654C64.3697 188.378 64.0305 189.298 64.0305 190.25C64.0305 191.202 64.3697 192.122 64.9873 192.846C65.6048 193.57 66.4603 194.05 67.4 194.2C67.8239 194.245 68.2527 194.204 68.6599 194.078C69.0672 193.951 69.4444 193.743 69.7684 193.466C70.0924 193.189 70.3563 192.849 70.544 192.466C70.7317 192.083 70.8393 191.666 70.86 191.24H68.86C68.8296 191.592 68.6692 191.92 68.41 192.16C68.1332 192.4 67.7765 192.529 67.41 192.52C66.41 192.52 65.75 191.64 65.75 190.22C65.75 188.8 66.4 187.95 67.41 187.95C67.7622 187.944 68.1037 188.071 68.3654 188.307C68.6272 188.543 68.7896 188.869 68.82 189.22H70.82C70.79 187.42 69.43 186.24 67.4 186.24V186.3ZM71.99 183.85H74.15V189.24H74.26L76.76 186.34H79.23L76.34 189.66L79.34 194H76.81L74.69 190.91L74.11 191.56V194H71.95L71.99 183.85ZM83.19 186.3C82.2503 186.45 81.3949 186.93 80.7773 187.654C80.1597 188.378 79.8204 189.298 79.8204 190.25C79.8204 191.202 80.1597 192.122 80.7773 192.846C81.3949 193.57 82.2503 194.05 83.19 194.2C85.25 194.2 86.55 193.01 86.65 191.25H84.65C84.6395 191.425 84.5943 191.597 84.5171 191.755C84.4398 191.913 84.3321 192.054 84.2 192.17C83.9232 192.41 83.5665 192.539 83.2 192.53C82.2 192.53 81.54 191.65 81.54 190.23C81.54 188.81 82.2 187.96 83.2 187.96C83.3822 187.951 83.5644 187.978 83.736 188.04C83.9077 188.102 84.0654 188.197 84.2 188.32C84.3326 188.433 84.4409 188.572 84.5182 188.729C84.5956 188.885 84.6404 189.056 84.65 189.23H86.65C86.58 187.42 85.22 186.24 83.19 186.24V186.3ZM89.94 194.06H87.78V183.81H89.88V187.71H89.97C90.1516 187.255 90.4739 186.869 90.89 186.61C91.3087 186.341 91.8043 186.218 92.3 186.26C92.673 186.246 93.0445 186.313 93.3894 186.456C93.7343 186.598 94.0444 186.814 94.2987 187.087C94.5529 187.36 94.7454 187.685 94.8629 188.039C94.9805 188.394 95.0204 188.769 94.98 189.14V194.02H92.82V189.52C92.8654 189.333 92.8654 189.137 92.82 188.95C92.7614 188.764 92.6624 188.593 92.53 188.45C92.3963 188.306 92.2324 188.193 92.05 188.12C91.8685 188.05 91.6742 188.019 91.48 188.03C91.2718 188.018 91.0636 188.053 90.87 188.13C90.683 188.21 90.5132 188.325 90.37 188.47C90.2266 188.618 90.1174 188.795 90.05 188.99C89.982 189.182 89.958 189.387 89.98 189.59L89.94 194.06ZM98.94 189.56C97.4 189.7 96.02 190.22 96.02 191.92C96.02 193.44 97.11 194.2 98.6 194.2C99.055 194.241 99.5121 194.148 99.9152 193.933C100.318 193.718 100.65 193.39 100.87 192.99H100.93V194.06H102.93V188.84C102.93 187.01 101.36 186.25 99.63 186.25C97.9 186.25 96.55 187.13 96.24 188.52L98.24 188.68C98.3427 188.405 98.5342 188.172 98.7841 188.018C99.0341 187.864 99.3282 187.798 99.62 187.83C100.36 187.83 100.77 188.2 100.77 188.83C100.77 189.46 100.32 189.39 98.96 189.52L98.94 189.56ZM100.84 190.47V191.24C100.829 191.435 100.778 191.626 100.69 191.8C100.601 191.977 100.477 192.135 100.326 192.264C100.175 192.393 99.9992 192.49 99.81 192.55C99.619 192.608 99.4192 192.632 99.22 192.62C98.56 192.62 98.08 192.32 98.08 191.72C98.08 191.12 98.58 190.83 99.34 190.72C99.8578 190.696 100.37 190.598 100.86 190.43L100.84 190.47ZM107.94 194.06H110.14V189.63C110.12 189.431 110.14 189.23 110.2 189.04C110.265 188.847 110.371 188.669 110.51 188.52C110.65 188.369 110.821 188.25 111.01 188.17C111.201 188.097 111.405 188.063 111.61 188.07C111.804 188.059 111.999 188.09 112.18 188.16C112.36 188.237 112.524 188.349 112.66 188.49C112.792 188.633 112.891 188.804 112.95 188.99C112.995 189.177 112.995 189.373 112.95 189.56V194.06H115.12V189.14C115.159 188.768 115.118 188.393 114.999 188.039C114.88 187.684 114.687 187.36 114.432 187.087C114.177 186.814 113.866 186.599 113.521 186.456C113.175 186.313 112.803 186.246 112.43 186.26C111.935 186.228 111.443 186.35 111.02 186.61C110.601 186.869 110.275 187.254 110.09 187.71H110V186.36H107.96L107.94 194.06Z" fill="#fff"/><path fill-rule="evenodd" clip-rule="evenodd" d="M138.9 186.36H136.84V194.02H139V189.42C138.982 189.245 138.999 189.068 139.05 188.9C139.109 188.735 139.197 188.583 139.31 188.45C139.43 188.315 139.577 188.207 139.74 188.13C139.905 188.06 140.081 188.019 140.26 188.01C140.421 188.002 140.581 188.029 140.73 188.09C140.883 188.146 141.021 188.239 141.13 188.36C141.244 188.477 141.333 188.617 141.39 188.77C141.425 188.925 141.425 189.085 141.39 189.24V194.02H143.48V189.34C143.46 189.168 143.481 188.993 143.54 188.83C143.593 188.666 143.682 188.516 143.8 188.39C143.923 188.265 144.069 188.167 144.23 188.1C144.392 188.035 144.566 188.004 144.74 188.01C144.907 188.002 145.074 188.029 145.23 188.09C145.382 188.159 145.521 188.253 145.64 188.37C145.752 188.495 145.837 188.641 145.89 188.8C145.942 188.958 145.959 189.125 145.94 189.29V194.02H148.1V188.91C148.11 188.345 147.929 187.794 147.586 187.345C147.243 186.897 146.758 186.578 146.21 186.44C145.657 186.3 145.072 186.35 144.55 186.58C144.031 186.809 143.604 187.207 143.34 187.71H143.22C143.091 187.266 142.811 186.881 142.43 186.62C142.043 186.355 141.578 186.228 141.11 186.26C140.639 186.239 140.173 186.368 139.78 186.63C139.392 186.889 139.1 187.268 138.95 187.71H138.85L138.9 186.36ZM123.78 186.26C122.84 186.41 121.985 186.89 121.367 187.614C120.75 188.338 120.411 189.258 120.411 190.21C120.411 191.162 120.75 192.082 121.367 192.806C121.985 193.53 122.84 194.01 123.78 194.16C125.84 194.16 127.14 192.97 127.24 191.21H125.24C125.21 191.562 125.049 191.89 124.79 192.13C124.512 192.369 124.156 192.497 123.79 192.49C122.79 192.49 122.13 191.61 122.13 190.19C122.13 188.77 122.79 187.92 123.79 187.92C124.158 187.903 124.518 188.032 124.79 188.28C125.051 188.514 125.212 188.84 125.24 189.19H127.24C127.17 187.42 125.81 186.24 123.78 186.24V186.26ZM116.96 192.11C116.734 192.332 116.605 192.633 116.6 192.95C116.6 193.104 116.631 193.257 116.69 193.4C116.749 193.549 116.842 193.682 116.96 193.79C117.071 193.902 117.204 193.991 117.35 194.05C117.496 194.109 117.652 194.139 117.81 194.14C117.97 194.142 118.128 194.112 118.276 194.052C118.423 193.992 118.558 193.903 118.67 193.79C118.783 193.681 118.872 193.551 118.932 193.406C118.992 193.262 119.022 193.106 119.02 192.95C119.021 192.794 118.991 192.639 118.931 192.494C118.871 192.35 118.782 192.219 118.67 192.11C118.442 191.886 118.135 191.76 117.815 191.76C117.495 191.76 117.188 191.886 116.96 192.11ZM128.06 190.21C128.084 189.458 128.328 188.73 128.763 188.116C129.198 187.502 129.804 187.03 130.506 186.758C131.207 186.487 131.973 186.428 132.708 186.589C133.443 186.75 134.114 187.124 134.638 187.664C135.162 188.204 135.515 188.886 135.653 189.626C135.791 190.365 135.709 191.129 135.416 191.822C135.123 192.515 134.632 193.106 134.005 193.522C133.378 193.938 132.642 194.16 131.89 194.16C131.372 194.189 130.853 194.106 130.37 193.918C129.886 193.73 129.448 193.441 129.085 193.069C128.723 192.698 128.443 192.254 128.267 191.766C128.09 191.278 128.019 190.757 128.06 190.24V190.21ZM133.53 190.21C133.53 188.88 132.96 187.89 131.9 187.89C130.84 187.89 130.25 188.89 130.25 190.21C130.25 191.53 130.81 192.53 131.9 192.53C132.99 192.53 133.52 191.54 133.53 190.24V190.21Z" fill="#fff"/><path d="M90.51 179.02H91.81V176.6H93.18C93.5095 176.63 93.8418 176.592 94.1555 176.486C94.4692 176.381 94.7575 176.211 95.002 175.988C95.2464 175.765 95.4417 175.494 95.5753 175.191C95.7089 174.888 95.778 174.561 95.778 174.23C95.778 173.899 95.7089 173.572 95.5753 173.269C95.4417 172.966 95.2464 172.695 95.002 172.472C94.7575 172.249 94.4692 172.079 94.1555 171.974C93.8418 171.869 93.5095 171.83 93.18 171.86H90.5L90.51 179.02ZM91.81 175.53V172.94H93C94 172.94 94.4 173.47 94.4 174.23C94.4141 174.413 94.3868 174.597 94.3199 174.768C94.253 174.939 94.1484 175.093 94.0138 175.218C93.8792 175.343 93.7181 175.436 93.5426 175.49C93.367 175.544 93.1816 175.558 93 175.53H91.81Z" fill="#fff"/><path d="M99.35 179.12C99.9073 179.162 100.464 179.035 100.948 178.756C101.433 178.477 101.821 178.059 102.064 177.555C102.307 177.052 102.392 176.487 102.309 175.934C102.226 175.382 101.978 174.867 101.598 174.457C101.218 174.047 100.723 173.762 100.178 173.637C99.6333 173.513 99.0636 173.556 98.5434 173.76C98.0233 173.965 97.5768 174.321 97.2622 174.783C96.9476 175.245 96.7796 175.791 96.78 176.35C96.7428 176.706 96.7821 177.066 96.8953 177.405C97.0085 177.745 97.193 178.056 97.4363 178.318C97.6797 178.58 97.9764 178.788 98.3064 178.926C98.6365 179.064 98.9923 179.13 99.35 179.12ZM99.35 178.12C98.48 178.12 98.05 177.34 98.05 176.36C98.05 175.38 98.63 174.59 99.5 174.59C100.37 174.59 101 175.38 101 176.36C101 177.34 100.36 178.11 99.5 178.11L99.35 178.12Z" fill="#fff"/><path d="M104.26 179.02H105.58L106.58 175.39H106.66L107.66 179.02H108.98L110.5 173.65H109.21L108.28 177.4H108.22L107.22 173.65H105.94L104.94 177.43H104.89L103.94 173.65H102.65L104.26 179.02Z" fill="#fff"/><path d="M113.93 179.12C114.437 179.179 114.949 179.056 115.376 178.775C115.802 178.493 116.115 178.07 116.26 177.58L115.08 177.45C114.989 177.672 114.829 177.859 114.624 177.983C114.418 178.107 114.179 178.162 113.94 178.14C113.75 178.148 113.561 178.115 113.384 178.044C113.208 177.972 113.05 177.863 112.92 177.725C112.79 177.586 112.691 177.421 112.631 177.241C112.57 177.06 112.55 176.869 112.57 176.68H116.31V176.29C116.357 175.945 116.328 175.594 116.225 175.262C116.122 174.93 115.948 174.624 115.715 174.366C115.481 174.108 115.194 173.904 114.874 173.768C114.554 173.632 114.208 173.568 113.86 173.58C113.503 173.575 113.15 173.646 112.823 173.788C112.495 173.93 112.202 174.14 111.962 174.403C111.722 174.667 111.541 174.979 111.43 175.318C111.319 175.657 111.282 176.015 111.32 176.37C111.282 176.729 111.322 177.091 111.438 177.433C111.553 177.774 111.742 178.086 111.99 178.348C112.238 178.609 112.54 178.814 112.875 178.947C113.21 179.08 113.57 179.139 113.93 179.12ZM112.58 175.83C112.581 175.661 112.616 175.494 112.682 175.339C112.748 175.183 112.845 175.042 112.965 174.924C113.086 174.806 113.229 174.713 113.386 174.651C113.543 174.588 113.711 174.557 113.88 174.56C114.045 174.558 114.208 174.591 114.36 174.655C114.512 174.718 114.65 174.813 114.764 174.932C114.878 175.051 114.967 175.192 115.025 175.346C115.083 175.501 115.108 175.665 115.1 175.83H112.58Z" fill="#fff"/><path d="M117.66 179.02H118.93V175.86C118.927 175.702 118.957 175.546 119.017 175.401C119.077 175.255 119.167 175.124 119.281 175.015C119.395 174.906 119.53 174.822 119.677 174.767C119.825 174.713 119.983 174.69 120.14 174.7C120.339 174.702 120.536 174.726 120.73 174.77V173.61C120.577 173.594 120.423 173.594 120.27 173.61C119.969 173.603 119.675 173.698 119.435 173.879C119.196 174.061 119.025 174.319 118.95 174.61H118.89V173.72H117.66V179.02Z" fill="#fff"/><path d="M124.04 179.12C124.549 179.177 125.061 179.054 125.488 178.773C125.916 178.492 126.231 178.07 126.38 177.58L125.19 177.45C125.1 177.67 124.941 177.856 124.738 177.98C124.535 178.104 124.297 178.16 124.06 178.14C123.87 178.148 123.681 178.115 123.505 178.044C123.329 177.972 123.17 177.863 123.04 177.724C122.91 177.586 122.811 177.421 122.751 177.24C122.69 177.06 122.67 176.869 122.69 176.68H126.43V176.29C126.475 175.945 126.445 175.594 126.341 175.261C126.237 174.929 126.061 174.623 125.827 174.366C125.593 174.108 125.306 173.904 124.985 173.768C124.665 173.633 124.318 173.568 123.97 173.58C123.613 173.575 123.26 173.646 122.933 173.788C122.606 173.93 122.312 174.14 122.072 174.403C121.832 174.667 121.651 174.979 121.54 175.318C121.429 175.657 121.392 176.015 121.43 176.37C121.392 176.728 121.432 177.091 121.548 177.432C121.663 177.774 121.852 178.086 122.1 178.348C122.348 178.609 122.65 178.814 122.985 178.947C123.32 179.08 123.68 179.139 124.04 179.12ZM122.66 175.83C122.665 175.49 122.805 175.165 123.048 174.927C123.292 174.689 123.62 174.557 123.96 174.56C124.125 174.557 124.29 174.588 124.442 174.651C124.595 174.715 124.733 174.809 124.848 174.928C124.962 175.048 125.051 175.189 125.108 175.344C125.165 175.5 125.19 175.665 125.18 175.83H122.66Z" fill="#fff"/><path d="M129.79 179.11C130.111 179.125 130.43 179.044 130.704 178.876C130.979 178.709 131.197 178.463 131.33 178.17H131.4V179.02H132.66V171.86H131.39V174.54H131.34C131.216 174.236 131.002 173.978 130.727 173.799C130.451 173.62 130.128 173.53 129.8 173.54C128.56 173.54 127.58 174.54 127.58 176.3C127.58 178.06 128.52 179.11 129.79 179.11ZM130.14 178.11C129.31 178.11 128.86 177.37 128.86 176.36C128.86 175.35 129.3 174.65 130.14 174.65C130.98 174.65 131.4 175.32 131.4 176.36C131.4 177.4 130.95 178.08 130.14 178.08V178.11Z" fill="#fff"/><path d="M137.09 179.02H138.33V178.17H138.41C138.542 178.463 138.76 178.71 139.035 178.878C139.31 179.045 139.629 179.126 139.95 179.11C141.21 179.11 142.16 178.11 142.16 176.34C142.16 174.57 141.16 173.58 139.94 173.58C139.613 173.567 139.29 173.657 139.016 173.836C138.742 174.015 138.53 174.275 138.41 174.58H138.35V171.9H137.09V179.02ZM138.33 176.33C138.33 175.33 138.78 174.62 139.59 174.62C140.4 174.62 140.87 175.33 140.87 176.33C140.87 177.33 140.43 178.08 139.59 178.08C138.75 178.08 138.33 177.38 138.33 176.33Z" fill="#fff"/><path d="M144.14 181.03C144.559 181.051 144.972 180.927 145.311 180.679C145.65 180.432 145.893 180.075 146 179.67L148.15 173.67H146.8L145.56 177.72H145.5L144.27 173.67H142.92L144.87 179.15L144.76 179.44C144.53 180.05 144.16 180.1 143.6 179.94L143.31 180.94C143.579 181.018 143.86 181.049 144.14 181.03Z" fill="#fff"/></g><defs><clipPath id="clip0"><rect width="160" height="195.56" fill="#fff"/></clipPath></defs></svg>