<svg width="666" height="833" viewBox="0 0 666 833" fill="none" xmlns="http://www.w3.org/2000/svg">
<mask id="mask0_832_1647" style="mask-type:alpha" maskUnits="userSpaceOnUse" x="0" y="0" width="666" height="833">
<g clip-path="url(#clip0_832_1647)">
<path d="M1068.77 113.387L889.171 293.017V-66.244L1068.77 113.387ZM1068.77 113.387L1248.39 -66.244L1427.99 113.387L1248.39 293.017L1068.77 113.387ZM350.352 113.387L529.952 293.017M350.352 113.387H709.571M350.352 113.387C350.112 89.6532 354.581 66.1078 363.5 44.1118C372.419 22.1158 385.611 2.10566 402.313 -14.7616C419.015 -31.6289 438.896 -45.0187 460.806 -54.1568C482.716 -63.2949 506.221 -68 529.961 -68C553.701 -68 577.206 -63.2949 599.116 -54.1568C621.027 -45.0187 640.907 -31.6289 657.61 -14.7616C674.312 2.10566 687.503 22.1158 696.422 44.1118C705.341 66.1078 709.81 89.6532 709.571 113.387M350.352 113.387V472.647M350.352 113.387H-8.84933V472.647H350.352M529.952 293.017L709.571 113.387M529.952 293.017L709.571 472.647H350.352M529.952 293.017L350.352 472.647M1427.99 653.702L1248.39 474.072L1068.77 653.702M1427.99 653.702H1068.77M1427.99 653.702V1012.96H1068.77V653.702M-188.468 833.369C-164.878 833.374 -141.52 838.024 -119.727 847.054C-97.9341 856.084 -78.1337 869.317 -61.4563 885.997C-44.7788 902.677 -31.5509 922.478 -22.5277 944.27C-13.5046 966.061 -8.86282 989.415 -8.86761 1013H-368.087L-188.468 833.369ZM-188.468 833.369C-212.058 833.374 -235.417 838.024 -257.209 847.054C-279.002 856.084 -298.802 869.317 -315.48 885.997C-332.157 902.677 -345.385 922.478 -354.408 944.27C-363.432 966.061 -368.073 989.415 -368.069 1013L-188.468 833.369ZM-188.468 833.369C-164.878 833.365 -141.52 828.714 -119.727 819.685C-97.9341 810.655 -78.1337 797.422 -61.4563 780.742C-44.7788 764.061 -31.5509 744.26 -22.5277 722.469C-13.5046 700.678 -8.86282 677.323 -8.86761 653.739L-188.468 833.369ZM-368.069 653.702C-368.073 677.287 -363.432 700.642 -354.408 722.433C-345.385 744.224 -332.157 764.025 -315.48 780.705C-298.802 797.385 -279.002 810.618 -257.209 819.648C-235.417 828.678 -212.058 833.328 -188.468 833.333L-368.069 653.702ZM-368.069 653.702V1012.96M-368.069 653.702H-727.288M-368.069 653.702C-368.069 606.081 -349.146 560.41 -315.465 526.736C-281.783 493.063 -236.101 474.145 -188.468 474.145C-140.835 474.145 -95.1531 493.063 -61.4714 526.736C-27.7898 560.41 -8.86761 606.081 -8.86761 653.702M-368.069 653.702H-8.86761M-368.069 653.702V113.387M-368.069 1012.96H-727.288V653.702M-368.069 1012.96L-727.288 653.702M-727.288 653.702C-727.283 630.118 -731.925 606.763 -740.948 584.972C-749.971 563.181 -763.199 543.38 -779.876 526.7C-796.554 510.019 -816.354 496.786 -838.147 487.757C-859.94 478.727 -883.298 474.077 -906.888 474.072L-727.288 653.702ZM-727.288 653.702H-1086.51C-1086.51 630.118 -1081.87 606.763 -1072.85 584.972C-1063.82 563.181 -1050.6 543.38 -1033.92 526.7C-1017.24 510.019 -997.44 496.786 -975.648 487.757C-953.855 478.727 -930.497 474.077 -906.906 474.072L-727.288 653.702ZM1068.77 474.072C1068.53 450.338 1073 426.793 1081.92 404.797C1090.84 382.801 1104.03 362.791 1120.73 345.924C1137.44 329.056 1157.32 315.667 1179.23 306.528C1201.14 297.39 1224.64 292.685 1248.38 292.685C1272.12 292.685 1295.63 297.39 1317.54 306.528C1339.45 315.667 1359.33 329.056 1376.03 345.924C1392.73 362.791 1405.92 382.801 1414.84 404.797C1423.76 426.793 1428.23 450.338 1427.99 474.072H1068.77ZM1068.77 474.072C1068.76 438.562 1058.21 403.853 1038.47 374.335C1018.72 344.817 990.67 321.814 957.851 308.235C925.032 294.655 888.922 291.11 854.088 298.047C819.254 304.983 787.259 322.09 762.149 347.204C737.038 372.319 719.941 404.313 713.017 439.142C706.093 473.971 709.654 510.07 723.249 542.875C736.845 575.681 759.865 603.72 789.398 623.447C818.932 643.173 853.653 653.702 889.171 653.702M1068.77 474.072L889.171 653.702M1068.77 474.072C1068.78 497.657 1064.13 521.011 1055.11 542.802C1046.09 564.593 1032.86 584.394 1016.18 601.075C999.506 617.755 979.705 630.988 957.913 640.018C936.12 649.047 912.762 653.698 889.171 653.702M889.171 653.702L1068.77 833.333L889.171 1012.96L709.571 833.333L889.171 653.702ZM-1445.71 652.315L-1266.11 472.684L-1445.71 293.054M-1445.71 652.315V293.054M-1445.71 652.315V293.017M-1445.71 652.315C-1445.7 675.899 -1450.34 699.254 -1459.37 721.045C-1468.39 742.836 -1481.62 762.637 -1498.3 779.317C-1514.97 795.998 -1534.77 809.23 -1556.57 818.26C-1578.36 827.29 -1601.72 831.94 -1625.31 831.945L-1445.71 652.315ZM-1445.71 652.315H-1086.51V1011.54H-1445.71V652.315ZM-1445.71 293.054H-1086.49V-66.244M-1445.71 293.054L-1086.49 -66.244M-1445.71 293.017V-66.244M-1445.71 293.017L-1625.31 472.647M-1445.71 293.017L-1625.33 113.387M-1625.31 472.647C-1601.72 472.652 -1578.36 477.302 -1556.57 486.332C-1534.77 495.362 -1514.97 508.595 -1498.3 525.275C-1481.62 541.955 -1468.39 561.756 -1459.37 583.548C-1450.34 605.339 -1445.7 628.693 -1445.71 652.278L-1625.31 472.647ZM-1086.49 -66.244H-1445.71M-1086.49 -66.244C-1086.73 -42.5106 -1082.26 -18.9652 -1073.34 3.03081C-1064.42 25.0268 -1051.23 45.0369 -1034.53 61.9042C-1017.83 78.7715 -997.944 92.1613 -976.034 101.299C-954.124 110.438 -930.619 115.143 -906.879 115.143C-883.139 115.143 -859.634 110.438 -837.724 101.299C-815.814 92.1613 -795.933 78.7715 -779.231 61.9042C-762.529 45.0369 -749.337 25.0268 -740.418 3.03081C-731.499 -18.9652 -727.03 -42.5106 -727.269 -66.244H-1086.49ZM-1445.71 -66.244H-1804.93L-1625.33 113.387M-1445.71 -66.244L-1625.33 113.387M-1625.33 113.387L-1804.93 293.017L-1625.33 472.647V113.387ZM-8.86761 653.702V113.387M-368.069 113.387L-547.669 293.017L-727.288 113.387L-547.687 -66.244L-368.069 113.387ZM-368.069 113.387C-368.069 65.765 -349.146 20.0938 -315.465 -13.5797C-281.783 -47.2533 -236.101 -66.1709 -188.468 -66.1709C-140.835 -66.1709 -95.1531 -47.2533 -61.4714 -13.5797C-27.7898 20.0938 -8.86761 65.765 -8.86761 113.387M-368.069 113.387H-8.86761M-368.069 113.387C-368.069 161.008 -349.146 206.679 -315.465 240.353C-281.783 274.026 -236.101 292.944 -188.468 292.944C-140.835 292.944 -95.1531 274.026 -61.4714 240.353C-27.7898 206.679 -8.86761 161.008 -8.86761 113.387M-1625.33 831.982C-1601.74 831.986 -1578.38 836.636 -1556.59 845.666C-1534.79 854.696 -1514.99 867.929 -1498.31 884.609C-1481.64 901.29 -1468.41 921.091 -1459.39 942.882C-1450.36 964.673 -1445.72 988.028 -1445.73 1011.61H-1804.95C-1804.96 988.02 -1800.32 964.656 -1791.3 942.855C-1782.28 921.054 -1769.05 901.244 -1752.37 884.554C-1735.69 867.865 -1715.89 854.624 -1694.09 845.588C-1672.29 836.552 -1648.92 831.897 -1625.33 831.89V831.982ZM-1625.33 831.982C-1672.98 831.982 -1718.68 813.056 -1752.37 779.369C-1786.07 745.682 -1805 699.992 -1805 652.351C-1805 604.71 -1786.07 559.02 -1752.37 525.333C-1718.68 491.646 -1672.98 472.721 -1625.33 472.721V831.982ZM350.352 652.315C350.591 628.581 346.122 605.036 337.203 583.04C328.284 561.044 315.093 541.034 298.39 524.166C281.688 507.299 261.807 493.909 239.897 484.771C217.987 475.633 194.482 470.928 170.742 470.928C147.002 470.928 123.497 475.633 101.587 484.771C79.6766 493.909 59.7956 507.299 43.0935 524.166C26.3915 541.034 13.1997 561.044 4.28081 583.04C-4.63806 605.036 -9.10701 628.581 -8.86761 652.315H350.352ZM-727.288 294.405L-547.687 474.035L-368.087 294.405H-727.288ZM-8.86761 -66.244L170.751 113.387L350.352 -66.244H-8.86761ZM709.571 293.017L889.171 113.387L709.571 -66.244V293.017ZM275.465 397.779V188.237H65.9828V397.797L275.465 397.779ZM1353.1 938.095V728.553H1143.62V938.113L1353.1 938.095ZM709.516 1012.96C709.755 989.23 705.286 965.685 696.368 943.689C687.449 921.693 674.257 901.682 657.555 884.815C640.853 867.948 620.972 854.558 599.062 845.42C577.151 836.282 553.647 831.577 529.907 831.577C506.166 831.577 482.661 836.282 460.751 845.42C438.841 854.558 418.96 867.948 402.258 884.815C385.556 901.682 372.364 921.693 363.445 943.689C354.526 965.685 350.057 989.23 350.297 1012.96H709.516ZM170.696 1011.52L350.297 831.89L170.751 652.315L-8.86761 831.945L170.696 1011.52ZM-1266.11 652.315L-1086.51 472.684L-1266.11 293.017V652.315ZM-368.069 474.108L-547.669 653.739L-727.269 474.108H-368.069ZM-1161.39 936.67V727.183H-1370.88V936.688L-1161.39 936.67ZM-1161.39 218.148V8.60665H-1370.88V218.166L-1161.39 218.148ZM-442.901 938.113V728.553H-652.456V938.113H-442.901ZM-906.833 1012.98L-727.233 833.351L-906.833 653.721L-1086.43 833.351L-906.833 1012.98ZM-906.742 173.117L-948.679 294.423H-1081.3L-972.496 368.927L-1014.34 490.233L-906.176 416.35L-799.124 490.233L-840.988 368.927L-732.183 294.423H-864.787L-906.742 173.117ZM552.126 479.112L504.71 622.404H354.845L477.805 710.42L430.499 853.712L552.747 766.426L673.735 853.712L626.428 710.42L749.37 622.404H599.524L552.126 479.112Z" stroke="url(#paint0_linear_832_1647)" stroke-opacity="0.5" stroke-width="4" stroke-linecap="round" stroke-linejoin="round"/>
</g>
</mask>
<g mask="url(#mask0_832_1647)">
<rect width="666" height="833" rx="16" fill="white"/>
</g>
<defs>
<linearGradient id="paint0_linear_832_1647" x1="-22.0001" y1="23.5" x2="689" y2="861" gradientUnits="userSpaceOnUse">
<stop stop-color="#D8EBFD" stop-opacity="0"/>
<stop offset="0.448893" stop-color="#D8EBFD" stop-opacity="0.166412"/>
<stop offset="0.809246" stop-color="#D8EBFD" stop-opacity="0.5"/>
<stop offset="1" stop-color="#D8EBFD" stop-opacity="0"/>
</linearGradient>
<clipPath id="clip0_832_1647">
<rect x="666" width="833" height="666" rx="16" transform="rotate(90 666 0)" fill="white"/>
</clipPath>
</defs>
</svg>
