<svg width="375" height="340" viewBox="0 0 375 340" fill="none" xmlns="http://www.w3.org/2000/svg">
<path d="M464.886 -132.86L370.836 -38.6414V-227.079L464.886 -132.86ZM464.886 -132.86L558.945 -227.079L652.995 -132.86L558.945 -38.6414L464.886 -132.86ZM88.6762 -132.86L182.726 -38.6414M88.6762 -132.86H276.786M88.6762 -132.86C88.5509 -145.309 90.891 -157.659 95.5615 -169.196C100.232 -180.733 107.14 -191.229 115.886 -200.076C124.633 -208.923 135.043 -215.946 146.517 -220.739C157.991 -225.532 170.299 -228 182.731 -228C195.163 -228 207.471 -225.532 218.945 -220.739C230.419 -215.946 240.829 -208.923 249.576 -200.076C258.322 -191.229 265.23 -180.733 269.9 -169.196C274.571 -157.659 276.911 -145.309 276.786 -132.86M88.6762 -132.86V55.5774M88.6762 -132.86H-99.4238V55.5774H88.6762M182.726 -38.6414L276.786 -132.86M182.726 -38.6414L276.786 55.5774H88.6762M182.726 -38.6414L88.6762 55.5774M652.995 150.543L558.945 56.3245L464.886 150.543M652.995 150.543H464.886M652.995 150.543V338.981H464.886V150.543M-193.483 244.781C-181.13 244.784 -168.898 247.223 -157.486 251.959C-146.074 256.695 -135.705 263.636 -126.972 272.385C-118.239 281.134 -111.312 291.52 -106.587 302.95C-101.862 314.38 -99.4308 326.63 -99.4333 339H-287.543L-193.483 244.781ZM-193.483 244.781C-205.837 244.784 -218.069 247.223 -229.481 251.959C-240.893 256.695 -251.261 263.636 -259.995 272.385C-268.728 281.134 -275.655 291.52 -280.38 302.95C-285.105 314.38 -287.536 326.63 -287.533 339L-193.483 244.781ZM-193.483 244.781C-181.13 244.779 -168.898 242.34 -157.486 237.603C-146.074 232.867 -135.705 225.926 -126.972 217.177C-118.239 208.428 -111.312 198.042 -106.587 186.612C-101.862 175.183 -99.4308 162.933 -99.4333 150.562L-193.483 244.781ZM-287.533 150.543C-287.536 162.914 -285.105 175.164 -280.38 186.593C-275.655 198.023 -268.728 208.409 -259.995 217.158C-251.261 225.907 -240.893 232.848 -229.481 237.584C-218.069 242.32 -205.837 244.76 -193.483 244.762L-287.533 150.543ZM-287.533 150.543V338.981M-287.533 150.543H-475.643M-287.533 150.543C-287.533 125.565 -277.624 101.61 -259.987 83.9476C-242.349 66.2853 -218.427 56.3628 -193.483 56.3628C-168.54 56.3628 -144.618 66.2853 -126.98 83.9476C-109.342 101.61 -99.4333 125.565 -99.4333 150.543M-287.533 150.543H-99.4333M-287.533 150.543V-132.86M-287.533 338.981H-475.643V150.543M-287.533 338.981L-475.643 150.543M-475.643 150.543C-475.64 138.173 -478.071 125.923 -482.796 114.493C-487.521 103.063 -494.448 92.6775 -503.182 83.9284C-511.915 75.1794 -522.283 68.2386 -533.696 63.5023C-545.108 58.766 -557.339 56.327 -569.693 56.3245L-475.643 150.543ZM-475.643 150.543H-663.752C-663.755 138.173 -661.324 125.923 -656.599 114.493C-651.874 103.063 -644.947 92.6775 -636.214 83.9284C-627.48 75.1794 -617.112 68.2386 -605.7 63.5023C-594.288 58.766 -582.056 56.327 -569.702 56.3245L-475.643 150.543ZM464.886 56.3245C464.76 43.876 467.101 31.5261 471.771 19.9889C476.441 8.45165 483.35 -2.04394 492.096 -10.8911C500.842 -19.7382 511.253 -26.7614 522.726 -31.5544C534.2 -36.3475 546.509 -38.8154 558.94 -38.8154C571.372 -38.8154 583.681 -36.3475 595.154 -31.5544C606.628 -26.7614 617.039 -19.7382 625.785 -10.8911C634.531 -2.04394 641.439 8.45165 646.11 19.9889C650.78 31.5261 653.121 43.876 652.995 56.3245H464.886ZM464.886 56.3245C464.878 37.699 459.356 19.4939 449.017 4.01107C438.678 -11.4718 423.987 -23.5372 406.801 -30.6596C389.615 -37.782 370.705 -39.6416 352.464 -36.0033C334.223 -32.365 317.468 -23.3922 304.319 -10.2193C291.17 2.9536 282.216 19.735 278.59 38.0032C274.964 56.2713 276.829 75.2059 283.949 92.4129C291.068 109.62 303.123 124.327 318.588 134.674C334.054 145.021 352.236 150.543 370.836 150.543M464.886 56.3245L370.836 150.543M464.886 56.3245C464.888 68.695 462.457 80.9448 457.732 92.3746C453.007 103.804 446.08 114.19 437.347 122.939C428.614 131.688 418.245 138.629 406.833 143.365C395.421 148.102 383.189 150.541 370.836 150.543M370.836 150.543L464.886 244.762L370.836 338.981L276.786 244.762L370.836 150.543ZM-851.852 149.815L-757.802 55.5966L-851.852 -38.6222M-851.852 149.815V-38.6222M-851.852 149.815V-38.6414M-851.852 149.815C-851.85 162.186 -854.28 174.436 -859.006 185.865C-863.731 197.295 -870.658 207.681 -879.391 216.43C-888.124 225.179 -898.493 232.12 -909.905 236.856C-921.317 241.593 -933.549 244.032 -945.902 244.034L-851.852 149.815ZM-851.852 149.815H-663.752V338.234H-851.852V149.815ZM-851.852 -38.6222H-663.743V-227.079M-851.852 -38.6222L-663.743 -227.079M-851.852 -38.6414V-227.079M-851.852 -38.6414L-945.902 55.5774M-851.852 -38.6414L-945.912 -132.86M-945.902 55.5774C-933.549 55.5799 -921.317 58.0189 -909.905 62.7552C-898.493 67.4915 -888.124 74.4323 -879.391 83.1814C-870.658 91.9304 -863.731 102.316 -859.006 113.746C-854.28 125.176 -851.85 137.426 -851.852 149.796L-945.902 55.5774ZM-663.743 -227.079H-851.852M-663.743 -227.079C-663.868 -214.63 -661.528 -202.281 -656.857 -190.743C-652.187 -179.206 -645.279 -168.711 -636.533 -159.863C-627.786 -151.016 -617.375 -143.993 -605.902 -139.2C-594.428 -134.407 -582.12 -131.939 -569.688 -131.939C-557.256 -131.939 -544.948 -134.407 -533.474 -139.2C-522 -143.993 -511.59 -151.016 -502.843 -159.863C-494.097 -168.711 -487.189 -179.206 -482.519 -190.743C-477.848 -202.281 -475.508 -214.63 -475.633 -227.079H-663.743ZM-851.852 -227.079H-1039.96L-945.912 -132.86M-851.852 -227.079L-945.912 -132.86M-945.912 -132.86L-1039.96 -38.6414L-945.912 55.5774V-132.86ZM-99.4333 150.543V-132.86M-287.533 -132.86L-381.583 -38.6414L-475.643 -132.86L-381.593 -227.079L-287.533 -132.86ZM-287.533 -132.86C-287.533 -157.838 -277.624 -181.794 -259.987 -199.456C-242.349 -217.118 -218.427 -227.041 -193.483 -227.041C-168.54 -227.041 -144.618 -217.118 -126.98 -199.456C-109.342 -181.794 -99.4333 -157.838 -99.4333 -132.86M-287.533 -132.86H-99.4333M-287.533 -132.86C-287.533 -107.882 -277.624 -83.9268 -259.987 -66.2645C-242.349 -48.6022 -218.427 -38.6797 -193.483 -38.6797C-168.54 -38.6797 -144.618 -48.6022 -126.98 -66.2645C-109.342 -83.9268 -99.4333 -107.882 -99.4333 -132.86M-945.912 244.053C-933.558 244.056 -921.327 246.495 -909.915 251.231C-898.503 255.967 -888.134 262.908 -879.4 271.657C-870.667 280.406 -863.74 290.792 -859.015 302.222C-854.29 313.652 -851.859 325.902 -851.862 338.272H-1039.97C-1039.98 325.897 -1037.55 313.643 -1032.83 302.208C-1028.1 290.773 -1021.18 280.382 -1012.44 271.629C-1003.71 262.875 -993.335 255.93 -981.92 251.19C-970.505 246.451 -958.269 244.009 -945.912 244.005V244.053ZM-945.912 244.053C-970.866 244.053 -994.797 234.127 -1012.44 216.457C-1030.09 198.788 -1040 174.823 -1040 149.834C-1040 124.846 -1030.09 100.881 -1012.44 83.2118C-994.797 65.5423 -970.866 55.6157 -945.912 55.6157V244.053ZM88.6762 149.815C88.8016 137.367 86.4614 125.017 81.7909 113.48C77.1205 101.943 70.2124 91.4469 61.4661 82.5998C52.7199 73.7526 42.309 66.7295 30.8354 61.9364C19.3619 57.1434 7.05339 54.6755 -5.3785 54.6755C-17.8104 54.6755 -30.119 57.1434 -41.5925 61.9364C-53.0661 66.7295 -63.477 73.7526 -72.2232 82.5998C-80.9695 91.4469 -87.8775 101.943 -92.548 113.48C-97.2185 125.017 -99.5587 137.367 -99.4333 149.815H88.6762ZM-475.643 -37.9134L-381.593 56.3053L-287.543 -37.9134H-475.643ZM-99.4333 -227.079L-5.37371 -132.86L88.6762 -227.079H-99.4333ZM276.786 -38.6414L370.836 -132.86L276.786 -227.079V-38.6414ZM49.4608 16.3076V-93.5999H-60.237V16.3172L49.4608 16.3076ZM613.78 299.711V189.803H504.082V299.721L613.78 299.711ZM276.757 338.981C276.882 326.532 274.542 314.182 269.872 302.645C265.201 291.108 258.293 280.612 249.547 271.765C240.801 262.918 230.39 255.895 218.916 251.102C207.443 246.309 195.134 243.841 182.702 243.841C170.27 243.841 157.962 246.309 146.488 251.102C135.015 255.895 124.604 262.918 115.858 271.765C107.111 280.612 100.203 291.108 95.5329 302.645C90.8624 314.182 88.5221 326.532 88.6475 338.981H276.757ZM-5.40244 338.224L88.6475 244.005L-5.37371 149.815L-99.4333 244.034L-5.40244 338.224ZM-757.802 149.815L-663.752 55.5966L-757.802 -38.6414V149.815ZM-287.533 56.3436L-381.583 150.562L-475.633 56.3436H-287.533ZM-702.968 298.964V189.085H-812.666V298.974L-702.968 298.964ZM-702.968 -77.9112V-187.819H-812.666V-77.9016L-702.968 -77.9112ZM-326.72 299.721V189.803H-436.456V299.721H-326.72ZM-569.664 338.99L-475.614 244.772L-569.664 150.553L-663.714 244.772L-569.664 338.99ZM-569.616 -101.531L-591.577 -37.9039H-661.026L-604.049 1.17437L-625.962 64.801L-569.32 26.0484L-513.261 64.801L-535.183 1.17437L-478.206 -37.9039H-547.646L-569.616 -101.531ZM194.338 58.968L169.508 134.127H91.0291L155.419 180.293L130.646 255.451L194.663 209.668L258.02 255.451L233.247 180.293L297.627 134.127H219.158L194.338 58.968Z" stroke="url(#paint0_linear_832_1845)" stroke-opacity="0.5" stroke-width="2" stroke-linecap="round" stroke-linejoin="round"/>
<defs>
<linearGradient id="paint0_linear_832_1845" x1="-8.00001" y1="6.50007" x2="348.469" y2="298.928" gradientUnits="userSpaceOnUse">
<stop stop-color="#D8EBFD" stop-opacity="0"/>
<stop offset="0.56506" stop-color="#D8EBFD" stop-opacity="0.5"/>
<stop offset="1" stop-color="#D8EBFD" stop-opacity="0"/>
</linearGradient>
</defs>
</svg>
