<svg width="32" height="32" viewBox="0 0 32 32" fill="none" xmlns="http://www.w3.org/2000/svg"><path d="M2 1H3V1C3.55228 1 4 1.44771 4 2V8.99998" stroke="#0C6CF2" stroke-width="2" stroke-linecap="round" stroke-linejoin="round"/><path d="M2 9H5.99999" stroke="#0C6CF2" stroke-width="2" stroke-linecap="round" stroke-linejoin="round"/><path d="M14 6.99999C14 8.10455 13.1046 8.99998 12 8.99998C10.8954 8.99998 10 8.10455 10 6.99999V2.99999V3C10 1.89543 10.8954 1 12 1C13.1046 1 14 1.89543 14 3V3V6.99999Z" stroke="#0C6CF2" stroke-width="2" stroke-linecap="round" stroke-linejoin="round"/><path d="M18 1H19V1C19.5523 1 20 1.44771 20 2V8.99998" stroke="#0C6CF2" stroke-width="2" stroke-linecap="round" stroke-linejoin="round"/><path d="M18 9H22" stroke="#0C6CF2" stroke-width="2" stroke-linecap="round" stroke-linejoin="round"/><path d="M30 6.99999C30 8.10455 29.1046 8.99998 28 8.99998C26.8954 8.99998 26 8.10455 26 6.99999V2.99999V3C26 1.89543 26.8954 1 28 1C29.1046 1 30 1.89543 30 3V3V6.99999Z" stroke="#0C6CF2" stroke-width="2" stroke-linecap="round" stroke-linejoin="round"/><path d="M20 12V12C21.1046 12 22 12.8954 22 14V16" stroke="#0C6CF2" stroke-width="2" stroke-linecap="round" stroke-linejoin="round"/><path d="M26 12H27V12C27.5523 12 28 12.4477 28 13V20" stroke="#0C6CF2" stroke-width="2" stroke-linecap="round" stroke-linejoin="round"/><path d="M26 20H30" stroke="#0C6CF2" stroke-width="2" stroke-linecap="round" stroke-linejoin="round"/><path d="M30 29C30 30.1046 29.1046 31 28 31C26.8954 31 26 30.1046 26 29V25V25C26 23.8954 26.8954 23 28 23C29.1046 23 30 23.8954 30 25V25V29Z" stroke="#0C6CF2" stroke-width="2" stroke-linecap="round" stroke-linejoin="round"/><path d="M9 21H12.3333" stroke="#0C6CF2" stroke-width="2" stroke-linecap="round" stroke-linejoin="round"/><path d="M11 17V16" stroke="#0C6CF2" stroke-width="2" stroke-linecap="round" stroke-linejoin="round"/><path d="M11 25V26" stroke="#0C6CF2" stroke-width="2" stroke-linecap="round" stroke-linejoin="round"/><path d="M12.3333 17V17C13.3413 17.1006 14.0828 17.9904 14 19V19C14.0828 20.0096 13.3413 20.8994 12.3333 21V21C13.3413 21.1006 14.0828 21.9904 14 23V23C14.0828 24.0096 13.3413 24.8994 12.3333 25H9V17L12.3333 17Z" stroke="#0C6CF2" stroke-width="2" stroke-linecap="round" stroke-linejoin="round"/><path d="M17.3639 14.636C20.8786 18.1507 20.8786 23.8492 17.3639 27.3639C13.8492 30.8786 8.15074 30.8786 4.63603 27.3639C1.12132 23.8492 1.12132 18.1507 4.63603 14.636C8.15074 11.1213 13.8492 11.1213 17.3639 14.636" stroke="#0C6CF2" stroke-width="2" stroke-linecap="round" stroke-linejoin="round"/><path d="M20 29V31" stroke="#0C6CF2" stroke-width="2" stroke-linecap="round" stroke-linejoin="round"/><path d="M18 31H22" stroke="#0C6CF2" stroke-width="2" stroke-linecap="round" stroke-linejoin="round"/></svg>