<svg width="32" height="32" viewBox="0 0 32 32" fill="none" xmlns="http://www.w3.org/2000/svg"><path d="M3.00004 5.23174V15.3833C3.00007 18.592 3.97243 21.7255 5.78894 24.3705C7.60545 27.0155 10.1808 29.048 13.1756 30.2001L14.5636 30.7334C15.4879 31.0889 16.5112 31.0889 17.4355 30.7334L18.8234 30.2001C21.8182 29.048 24.3936 27.0155 26.2101 24.3705C28.0266 21.7255 28.999 18.592 28.999 15.3833C28.999 12.1746 28.999 5.23174 28.999 5.23174C29.0015 4.84973 28.8937 4.47512 28.6884 4.15296C28.4831 3.83081 28.189 3.57483 27.8417 3.41581C24.1083 1.78627 20.0729 0.96346 15.9995 1.00124C11.9262 0.96346 7.89073 1.78627 4.15733 3.41581C3.80998 3.57483 3.51597 3.83081 3.31066 4.15296C3.10535 4.47512 2.99749 4.84973 3.00004 5.23174Z" stroke="#0C6CF2" stroke-width="2" stroke-linecap="round" stroke-linejoin="round"/><path d="M12.4998 12.6664C12.4998 10.7335 14.0667 9.1666 15.9996 9.1666C17.9325 9.1666 19.4994 10.7335 19.4994 12.6664V17.3328C19.4994 19.2657 17.9325 20.8326 15.9996 20.8326C14.0667 20.8326 12.4998 19.2657 12.4998 17.3328V12.6664Z" fill="#0C6CF2" fill-opacity=".5"/><path d="M12.4998 13.2497H19.4994M9 15.5829H12.4998M19.4994 15.5829H22.9992M12.9664 19.0827L10.1666 22M19.2651 19.0827L22.065 22M12.9664 10.9173L10.1666 8M19.2651 10.9173L22.065 8M15.9996 20.8326C14.0667 20.8326 12.4998 19.2657 12.4998 17.3328V12.6664C12.4998 10.7335 14.0667 9.1666 15.9996 9.1666C17.9325 9.1666 19.4994 10.7335 19.4994 12.6664V17.3328C19.4994 19.2657 17.9325 20.8326 15.9996 20.8326Z" stroke="#0C6CF2" stroke-width="2" stroke-linecap="round" stroke-linejoin="round"/></svg>