<svg width="32" height="32" viewBox="0 0 32 32" fill="none" xmlns="http://www.w3.org/2000/svg"><g clip-path="url(#clip0)"><path d="M21.2207 25.5C21.1218 25.5 21.0251 25.5293 20.9429 25.5843C20.8607 25.6392 20.7966 25.7173 20.7588 25.8087C20.7209 25.9 20.711 26.0006 20.7303 26.0975C20.7496 26.1945 20.7972 26.2836 20.8672 26.3536C20.9371 26.4235 21.0262 26.4711 21.1232 26.4904C21.2201 26.5097 21.3207 26.4998 21.412 26.4619C21.5034 26.4241 21.5815 26.36 21.6364 26.2778C21.6914 26.1956 21.7207 26.0989 21.7207 26C21.7207 25.8674 21.668 25.7402 21.5743 25.6464C21.4805 25.5527 21.3533 25.5 21.2207 25.5V25.5Z" stroke="#0C6CF2" stroke-width="2" stroke-linecap="round" stroke-linejoin="round"/><path d="M25.8736 24.1793L30.4149 19.638C30.7901 19.2628 31.0009 18.7539 31.0009 18.2233C31.0009 17.6927 30.7901 17.1838 30.4149 16.8086C30.0397 16.4334 29.5309 16.2227 29.0003 16.2227C28.4697 16.2227 27.9608 16.4334 27.5856 16.8086L23.0443 21.35C21.9749 20.9306 20.7938 20.8922 19.6995 21.2412C18.6051 21.5902 17.6643 22.3054 17.0353 23.2665C16.4062 24.2275 16.1272 25.3759 16.2452 26.5185C16.3632 27.661 16.871 28.7281 17.6832 29.5403C18.4954 30.3525 19.5625 30.8603 20.7051 30.9783C21.8477 31.0963 22.996 30.8174 23.9571 30.1883C24.9181 29.5592 25.6333 28.6184 25.9823 27.5241C26.3314 26.4298 26.293 25.2486 25.8736 24.1793V24.1793Z" stroke="#0C6CF2" stroke-width="2" stroke-linecap="round" stroke-linejoin="round"/><path d="M16 13C24.2843 13 31 10.3137 31 7C31 3.68629 24.2843 1 16 1C7.71573 1 1 3.68629 1 7C1 10.3137 7.71573 13 16 13Z" stroke="#0C6CF2" stroke-width="2" stroke-linecap="round" stroke-linejoin="round"/><path d="M31 13V7" stroke="#0C6CF2" stroke-width="2" stroke-linecap="round" stroke-linejoin="round"/><path d="M1 7V15C1 18.044 6.668 20.5587 14.012 20.9467" stroke="#0C6CF2" stroke-width="2" stroke-linecap="round" stroke-linejoin="round"/><path d="M1 15V23C1 25.9067 6.168 28.3333 13.0293 28.8813" stroke="#0C6CF2" stroke-width="2" stroke-linecap="round" stroke-linejoin="round"/></g><defs><clipPath id="clip0"><rect width="32" height="32" fill="#fff"/></clipPath></defs></svg>