<svg width="33" height="32" viewBox="0 0 33 32" fill="none" xmlns="http://www.w3.org/2000/svg"><g clip-path="url(#clip0)"><path d="M22.5 31H14.5L15.5 25H21.5L22.5 31Z" stroke="#0C6CF2" stroke-width="2" stroke-linecap="round" stroke-linejoin="round"/><path d="M11.5 31H25.5" stroke="#0C6CF2" stroke-width="2" stroke-linecap="round" stroke-linejoin="round"/><path d="M15.5 7H29.4999V7C30.6045 7 31.4999 7.89543 31.4999 8.99999V23C31.4999 24.1045 30.6045 25 29.4999 25H7.5V25C6.39543 25 5.5 24.1045 5.5 23V21" stroke="#0C6CF2" stroke-width="2" stroke-linecap="round" stroke-linejoin="round"/><path d="M5.5 21H31.4999" stroke="#0C6CF2" stroke-width="2" stroke-linecap="round" stroke-linejoin="round"/><path d="M3.5 17C2.39544 17 1.5 16.1045 1.5 15V3C1.5 1.89544 2.39544 1 3.5 1H9.49998C10.6045 1 11.5 1.89544 11.5 3V15C11.5 16.1045 10.6045 17 9.49998 17H3.5Z" stroke="#0C6CF2" stroke-width="2" stroke-linecap="round" stroke-linejoin="round"/><path d="M1.5 13H11.5" stroke="#0C6CF2" stroke-width="2" stroke-linecap="round" stroke-linejoin="round"/></g><defs><clipPath id="clip0"><rect width="32" height="32" fill="#fff" transform="translate(0.5)"/></clipPath></defs></svg>