<svg width="33" height="32" viewBox="0 0 33 32" fill="none" xmlns="http://www.w3.org/2000/svg"><path d="M5.50097 30.9999C4.39641 30.9999 3.50098 30.1045 3.50098 29V11C3.50098 9.89544 4.39641 9 5.50097 9H27.5009C28.6055 9 29.5009 9.89544 29.5009 11V29C29.5009 30.1045 28.6055 30.9999 27.5009 30.9999H5.50097Z" stroke="#0C6CF2" stroke-width="2" stroke-linecap="round" stroke-linejoin="round"/><path d="M9.50098 8.99998V7.99998V7.99998C9.50098 4.13401 12.635 1 16.501 1C20.3669 0.999999 23.5009 4.13399 23.5009 7.99998V7.99998V8.99998" stroke="#0C6CF2" stroke-width="2" stroke-linecap="round" stroke-linejoin="round"/><path d="M22.4992 26V20V20C22.5018 18.9469 22.2258 17.9119 21.6992 17" stroke="#0C6CF2" stroke-width="2" stroke-linecap="round" stroke-linejoin="round"/><path d="M10.5 20V26" stroke="#0C6CF2" stroke-width="2" stroke-linecap="round" stroke-linejoin="round"/><path d="M18.4626 14.3273V14.3273C15.8934 13.4435 13.0508 14.3936 11.5293 16.6446" stroke="#0C6CF2" stroke-width="2" stroke-linecap="round" stroke-linejoin="round"/><path d="M14.5 21V20V20C14.5 18.8954 15.3954 18 16.5 18C17.6046 18 18.5 18.8954 18.5 20V20V26" stroke="#0C6CF2" stroke-width="2" stroke-linecap="round" stroke-linejoin="round"/><path d="M14.5 25V26" stroke="#0C6CF2" stroke-width="2" stroke-linecap="round" stroke-linejoin="round"/></svg>